<svg xmlns="http://www.w3.org/2000/svg" viewBox="0 0 62.21 38.17"><defs><style>.cls-1{fill:#8cc63f;}</style></defs><title>bikeAsset 3</title><g id="Layer_2" data-name="Layer 2"><g id="Layer_1-2" data-name="Layer 1"><path class="cls-1" d="M53.23,20.22a9,9,0,0,0-7.38,3.87l-2.34-1V21.63l7.32-3,1.88-4.33h.86l4.33,5.14a.84.84,0,1,0,1.29-1.09l-3.41-4.06h.54a.84.84,0,0,0,0-1.69H55.06L56.17,12a1.06,1.06,0,0,0,.51-1.4L56,9.27a1.06,1.06,0,0,0-.95-.61L43.37,8.55h0a1.06,1.06,0,0,0-.77.34A12.15,12.15,0,0,1,35.75,12a9.93,9.93,0,0,0-1.46-2,8.61,8.61,0,0,0-6.46-2.79,11,11,0,0,0-1.58.12h0a66.41,66.41,0,0,0-7.15,1.62H18.9a2.39,2.39,0,0,1-2-.86,1.46,1.46,0,0,1-.09-.19l2-.35a1,1,0,1,0-.36-2l-1.57.29a16.21,16.21,0,0,1,1.87-4.2A1.06,1.06,0,0,0,17.38.07,16.22,16.22,0,0,0,12,3.82a14.3,14.3,0,0,0-3.87,7.85,3.87,3.87,0,0,1,.54-.8s2.88,1.88,1.26,4.61H8c0,.55.12,1.12.22,1.71a1.06,1.06,0,0,0,.33.6l2.36,2.17c-7.76-1-10.54,4-10.54,4-.58.77-.29,1.61.65,1.17a8.89,8.89,0,0,0-1,4.08,9,9,0,1,0,18,0,9.06,9.06,0,0,0-.07-1.08h11l-4.33-3.23a11.39,11.39,0,0,1-8.8-3.49c.38,0,.8,0,1.25,0,3,0,7.11.54,9.94,3.08l.12.09,9.72,6.55a1.06,1.06,0,0,0,1.34-.13L42,27l2.33,1a9,9,0,1,0,8.9-7.81ZM43.51,18l6.62-3.14L49.24,17l-5.72,2.37V18ZM9,34a4.75,4.75,0,0,1,0-9.51h.33l-2,4.05,3.8,1.84L13,26.61a4.75,4.75,0,0,1-4,7.34Zm44.25,0a4.76,4.76,0,0,1-4.71-4.12l3.6,1.54,1.66-3.88-3.89-1.67A4.75,4.75,0,1,1,53.23,34Z"/></g></g></svg>