<svg xmlns="http://www.w3.org/2000/svg" viewBox="0 0 56.46 45.17"><defs><style>.cls-1{fill:#fbb03b;}</style></defs><title>farmAsset 4</title><g id="Layer_2" data-name="Layer 2"><g id="Layer_1-2" data-name="Layer 1"><path class="cls-1" d="M54.43,30.26C56.56,25.38,57,22.11,55.8,20a4.49,4.49,0,0,0-4.19-2.21H48v-8c0-2,1.06-2.4,1.17-2.43a.63.63,0,0,0,.52-.7L49.44,4a.66.66,0,0,0-.71-.61C47.09,3.48,44,5,44,9.73v8H32.83L30.46,1.7a2,2,0,0,0-2-1.7H8.64a2,2,0,0,0-2,2V5.87a2,2,0,0,0,1.68,2v13A12.52,12.52,0,1,0,24.17,37.24H39.87v0A7.88,7.88,0,1,0,53.61,32c.27-.56.55-1.15.81-1.76ZM12.52,38.54a5.89,5.89,0,1,1,5.89-5.89,5.9,5.9,0,0,1-5.89,5.89Zm1.64-20.86V6.9h11.1l1.62,10.78H14.16Zm33.6,22.19a2.58,2.58,0,1,1,2.58-2.58,2.59,2.59,0,0,1-2.58,2.58Z"/></g></g></svg>