<svg xmlns="http://www.w3.org/2000/svg" viewBox="0 0 38.73 51.52"><defs><style>.cls-1{fill:#ed1c24;}</style></defs><title>QuipAsset 12</title><g id="Layer_2" data-name="Layer 2"><g id="Layer_1-2" data-name="Layer 1"><path class="cls-1" d="M37.42,44.75v6.77H1.14V44.75c0-2.51,2.17-5.61,4.81-6.86l5.89-2.8,4.09,8.52L18,37.93a6.51,6.51,0,0,0,1.25.18,6.52,6.52,0,0,0,1.25-.18l2,5.4,4-8.34,6.08,2.89C35.25,39.14,37.42,42.24,37.42,44.75ZM19.28,35c5.18,0,9.37-6.44,9.37-12.35s-4.2-9-9.37-9-9.37,3.13-9.37,9S14.11,35,19.28,35Zm14-14.94-2-.7A9.51,9.51,0,0,1,31.82,18a1.69,1.69,0,0,1,.73-.69A3.65,3.65,0,0,1,34,17l.74,0a4,4,0,0,0,.55-.06,1.07,1.07,0,0,0,.41-.17,2,2,0,0,0,.72-1.07,2,2,0,0,0,.13-1.41.93.93,0,0,0-.45-.49,6.71,6.71,0,0,0-1-.43,7.9,7.9,0,0,0-1.18-.3.94.94,0,0,0-.65.11,2.18,2.18,0,0,0-.56.86.72.72,0,0,1-.05.25l-.17.48-2-.69a7.66,7.66,0,0,1,1-2,2,2,0,0,1,1.11-.79,3.34,3.34,0,0,1,1.46,0,14.55,14.55,0,0,1,1.79.51q2.33.8,2.8,1.95a4,4,0,0,1-.18,2.75A4.16,4.16,0,0,1,37.47,18a2.44,2.44,0,0,1-1.22.59,5.57,5.57,0,0,1-.78.08l-.81.05a2,2,0,0,0-.55.15.74.74,0,0,0-.47.32A3.44,3.44,0,0,0,33.29,20.06ZM30.71,21l2,.69L32,23.84l-2-.69ZM6,19.63l-1.71.75a8.42,8.42,0,0,1-.45-1.2,1.52,1.52,0,0,1,.06-.88,3.27,3.27,0,0,1,.72-1.05l.46-.45a3.39,3.39,0,0,0,.32-.36,1,1,0,0,0,.17-.35A1.73,1.73,0,0,0,5.41,15c-.25-.56-.5-.89-.76-1a.8.8,0,0,0-.58,0,5.75,5.75,0,0,0-.92.34,7.25,7.25,0,0,0-.93.51.83.83,0,0,0-.35.45,1.93,1.93,0,0,0,.15.89.59.59,0,0,1,.12.19l.18.41L.6,17.46A6.64,6.64,0,0,1,0,15.56a1.74,1.74,0,0,1,.24-1.17,2.94,2.94,0,0,1,.93-.87,13.32,13.32,0,0,1,1.45-.74,3.81,3.81,0,0,1,3-.41A3.46,3.46,0,0,1,7.1,14.24a3.59,3.59,0,0,1,.4,1.61A2.15,2.15,0,0,1,7.08,17a4.63,4.63,0,0,1-.46.51L6.13,18a1.67,1.67,0,0,0-.27.42.64.64,0,0,0-.11.48A3.06,3.06,0,0,0,6,19.63ZM4.89,21.75,6.61,21l.81,1.85-1.71.75ZM17.5,8.94,15.57,8a9.54,9.54,0,0,1,.72-1.29,1.73,1.73,0,0,1,.82-.6A3.62,3.62,0,0,1,18.56,6L19.3,6a3.46,3.46,0,0,0,.56,0,1.2,1.2,0,0,0,.43-.11,2,2,0,0,0,.85-1,2,2,0,0,0,.3-1.4A.93.93,0,0,0,21.07,3a7,7,0,0,0-1-.55A8.62,8.62,0,0,0,19,2a1,1,0,0,0-.66,0,2.2,2.2,0,0,0-.66.79.69.69,0,0,1-.08.24l-.22.45L15.4,2.59A7.66,7.66,0,0,1,16.62.67,2,2,0,0,1,17.82,0a3.4,3.4,0,0,1,1.45.16A15.3,15.3,0,0,1,21,.91Q23.22,2,23.55,3.19A4,4,0,0,1,23,5.91a4.14,4.14,0,0,1-1.11,1.54,2.45,2.45,0,0,1-1.29.44,5.26,5.26,0,0,1-.79,0L19,7.82a1.82,1.82,0,0,0-.57.08.72.72,0,0,0-.5.26A3.42,3.42,0,0,0,17.5,8.94Zm-2.67.59,1.93.94-1,2.08-1.93-.94Z"/></g></g></svg>