<svg xmlns="http://www.w3.org/2000/svg" viewBox="0 0 69.76 25.79"><defs><style>.cls-1{fill:#f15a24;}</style></defs><title>QuipAsset 11</title><g id="Layer_2" data-name="Layer 2"><g id="Layer_1-2" data-name="Layer 1"><path class="cls-1" d="M68.66,13.57c-1.57-.52-6.67-.63-13.28-.5L47.14,5.61H20.47L13.22.35,11.58,0l5.8,5.61h-5.8s0,2.34,8.74,2c4.15-.37,7.33,8.27,3.43,7.77,0,0-13.8,0-15,0-2.28.15-4.33,4.37-5.51,7.37H0v1.63H2.66c-.28.81-.44,1.34-.44,1.34H56.5S74.27,15.44,68.66,13.57ZM28.19,11.49C27.72,7.54,32.07,8,32.07,8H33.8l-.93,3.53Zm9.71,0H33.81L34.74,8h4.09Zm1.17,0L40,8H43.4l-.93,3.53Zm4.33,0L44.33,8h1.4l4.21,3.53Z"/></g></g></svg>