<svg xmlns="http://www.w3.org/2000/svg" viewBox="0 0 44.96 37.35"><defs><style>.cls-1{fill:#ed1c24;}</style></defs><title>lifeAsset 5</title><g id="Layer_2" data-name="Layer 2"><g id="Layer_1-2" data-name="Layer 1"><path class="cls-1" d="M16.85,24.72c-.2-.15-1.75-1.33-6.07-1.62a1.62,1.62,0,0,1-.69-.33,3.47,3.47,0,0,1-.75-.61c-.33-.39-.7-.73-1-1.17a9,9,0,0,0-4.47-3.63c-.41-.2-2,0-1.23,1.09,0,0,2.4,3.31,2.55,3.58A5.5,5.5,0,0,0,6,23c.26.3.55.57.82.87A14.14,14.14,0,0,1,5,22.61,4,4,0,0,1,4.63,22c-.15-.24-.31-.47-.47-.7s-.4-.58-.62-.85-.56-.7-.84-1.05a7.77,7.77,0,0,1-.52-.65,1.13,1.13,0,0,1,.87-1.88c0-.13-.39-3.53-.46-4.1-.18-1.64-.35-2.85-1.29-3.18a.49.49,0,0,0-.59.13,6.45,6.45,0,0,0-.4,2.17A56,56,0,0,0,0,17.77c.05,1,3.19,8,4.1,9s8,5.14,8,5.14a3.7,3.7,0,0,1,1.54,2.52v2.87h7.61V34.72c0-.49.1-1,.16-1.45a5.46,5.46,0,0,0,0-2,11.93,11.93,0,0,0-4.49-6.55Z"/><path class="cls-1" d="M44.63,11.84a6.46,6.46,0,0,0-.4-2.17.49.49,0,0,0-.59-.13c-.94.33-1.12,1.55-1.29,3.18-.06.57-.42,4-.46,4.1a1.13,1.13,0,0,1,.87,1.88,7.51,7.51,0,0,1-.52.65c-.28.35-.56.7-.84,1.05s-.42.57-.62.85-.32.46-.47.7a3.9,3.9,0,0,1-.37.63,14.1,14.1,0,0,1-1.87,1.28c.27-.29.56-.57.82-.87a5.46,5.46,0,0,0,.86-1c.15-.26,2.51-3.57,2.55-3.58.75-1-.82-1.29-1.23-1.09A9,9,0,0,0,36.64,21c-.31.44-.69.77-1,1.17a3.44,3.44,0,0,1-.75.61,1.62,1.62,0,0,1-.69.33c-4.32.29-5.88,1.46-6.07,1.62a11.93,11.93,0,0,0-4.49,6.55,5.45,5.45,0,0,0,0,2c.06.48.14,1,.16,1.45v2.63h7.61V34.48A3.7,3.7,0,0,1,32.89,32s7.06-4.07,8-5.14,4-8,4.1-9a53.74,53.74,0,0,0-.3-5.92Z"/><path class="cls-1" d="M27.07,20.83c3.61-3.4,8.09-7.61,8.71-11.37A8.19,8.19,0,0,0,34.52,3,8.09,8.09,0,0,0,28.58,0a7.31,7.31,0,0,0-.74,0,8.65,8.65,0,0,0-5.36,1.93A8.65,8.65,0,0,0,17.12,0a7.31,7.31,0,0,0-.74,0A8.09,8.09,0,0,0,10.44,3a8.19,8.19,0,0,0-1.26,6.5c.62,3.75,5.1,8,8.71,11.37,0,0,1.8,1.81,2.34,2.27a3.79,3.79,0,0,0,2.24,1.05,3.79,3.79,0,0,0,2.24-1.05C25.27,22.64,27.07,20.83,27.07,20.83ZM17.9,4.48a4,4,0,0,0-4.17,3.71,1.12,1.12,0,1,1-2.25,0,6.21,6.21,0,0,1,6.42-6,1.12,1.12,0,1,1,0,2.25Z"/></g></g></svg>