<svg xmlns="http://www.w3.org/2000/svg" viewBox="0 0 43.51 42.1"><defs><style>.cls-1{fill:#8dc63f;}</style></defs><title>medicalAsset 9</title><g id="Layer_2" data-name="Layer 2"><g id="Layer_1-2" data-name="Layer 1"><path class="cls-1" d="M24.87,27.6l-2.7,7a1,1,0,0,1-.91.63h0a1,1,0,0,1-.91-.61L13,16.43l-2.63,5.41a1,1,0,0,1-.88.55H3.17c.07.12.13.24.2.37l1.71,2.46c.42.55.88,1.09,1.39,1.63C12.17,33,16.1,37.57,18.54,40.5a3.9,3.9,0,0,0,6.27,0c2.33-2.81,6-7.14,11.33-12.93Z"/><path class="cls-1" d="M32.12,0a11.36,11.36,0,0,0-7.66,3c-2,1.87-3.63,1.87-5.66,0a11.37,11.37,0,0,0-18,3.6c-1.16,2.49-1,7.07-.24,9.72a26.2,26.2,0,0,0,1.6,4.22,1,1,0,0,1,.43-.11H8.88l3.33-6.85a1,1,0,0,1,.91-.55,1,1,0,0,1,.88.61l7.24,18,2-5.34a1,1,0,0,1,.92-.63H36.87a1,1,0,0,1,.68.28l1-1.4a30.36,30.36,0,0,0,3.71-6.83,21.73,21.73,0,0,0,1.24-6.34A11.37,11.37,0,0,0,32.12,0Z"/></g></g></svg>