<svg xmlns="http://www.w3.org/2000/svg" viewBox="0 0 45.31 43.05"><defs><style>.cls-1{fill:#00aeef;}</style></defs><title>plantAsset 8</title><g id="Layer_2" data-name="Layer 2"><g id="Layer_1-2" data-name="Layer 1"><path class="cls-1" d="M26.3,2.49A2.27,2.27,0,0,1,26,2l.09-.09.5.2.54.21a6.33,6.33,0,0,0,.67.22,2,2,0,0,0,.36.09l.18,0h.18a3.8,3.8,0,0,0,.73,0c.12,0,.24-.05.37-.11a2.84,2.84,0,0,0,.37-.2l.18-.12a.71.71,0,0,0,.21-.14l.44-.37v0h0l0,0L31,1.66l.12-.1.22-.21c.14-.14.31-.25.45-.39s.32-.23.47-.36.34-.21.51-.33A2.21,2.21,0,0,1,33.92,0l.28,0,.26.09a2.44,2.44,0,0,1,.46.22,3.14,3.14,0,0,1,.67.52,3,3,0,0,1,.4.51,2.38,2.38,0,0,1,.2.37l.05.14L36.14,2l-.5-.19-.54-.22c-.2-.08-.42-.17-.65-.25a3.23,3.23,0,0,0-.36-.12l-.18-.06-.18,0A3.83,3.83,0,0,0,32.9.91a1.8,1.8,0,0,0-.47.08,1.34,1.34,0,0,0-.43.26,1.85,1.85,0,0,0-.34.4l-.12.24L31.48,2l0,.06v0h0l0,0-.24.52a2.69,2.69,0,0,1-.4.53,3.17,3.17,0,0,1-.52.43,3.76,3.76,0,0,1-.62.3,2.47,2.47,0,0,1-1.29,0,2.2,2.2,0,0,1-.54-.18,3.13,3.13,0,0,1-.45-.24A3.48,3.48,0,0,1,26.7,3a2.94,2.94,0,0,1-.4-.51Zm19,29.75V43H0V32.25H3.09V20.11l8.7-6.1v6.1l8.7-6.1v6.1l8.7-6.1V26h3L33.81,4.79h5L40.21,26h3.35v6.24h1.75ZM14.2,27.58H7.36v6.31H14.2V27.58Zm11.78,0H19.15v6.31H26V27.58Zm11.93,0H31.08v6.31h6.84V27.58Z"/></g></g></svg>