<svg xmlns="http://www.w3.org/2000/svg" viewBox="0 0 67.24 23.93"><defs><style>.cls-1{fill:#3fa9f5;}</style></defs><title>super-carAsset 7</title><g id="Layer_2" data-name="Layer 2"><g id="Layer_1-2" data-name="Layer 1"><path class="cls-1" d="M11.74,13.78a5.07,5.07,0,0,0-5.07,5.07,4.93,4.93,0,0,0,0,.64,5.07,5.07,0,0,0,10.08-.21c0-.14,0-.29,0-.43A5.07,5.07,0,0,0,11.74,13.78ZM9.2,16.94l1,1a1.75,1.75,0,0,0-.18.45H8.59A3.13,3.13,0,0,1,9.2,16.94ZM8.58,19.3h1.47a1.7,1.7,0,0,0,.18.44l-1,1A3.17,3.17,0,0,1,8.58,19.3ZM11.3,22a3.16,3.16,0,0,1-1.47-.61l1-1a1.75,1.75,0,0,0,.44.18Zm0-4.84a1.76,1.76,0,0,0-.45.19l-1-1a3.15,3.15,0,0,1,1.48-.61Zm.88-1.46a3.16,3.16,0,0,1,1.48.61l-1,1a1.76,1.76,0,0,0-.45-.19Zm0,6.3V20.54a1.73,1.73,0,0,0,.44-.18l1,1A3.16,3.16,0,0,1,12.18,22Zm2.1-1.22-1-1a1.71,1.71,0,0,0,.19-.44h1.46A3.17,3.17,0,0,1,14.28,20.78Zm-.85-2.36a1.78,1.78,0,0,0-.18-.45l1-1a3.17,3.17,0,0,1,.61,1.48H13.43Z"/><path class="cls-1" d="M53.87,13.78a5.07,5.07,0,0,0-5.07,5.07,4.93,4.93,0,0,0,0,.64,5.07,5.07,0,0,0,10.08-.21c0-.14,0-.29,0-.43A5.07,5.07,0,0,0,53.87,13.78Zm-2.54,3.16,1,1a1.75,1.75,0,0,0-.18.45H50.72A3.14,3.14,0,0,1,51.33,16.94Zm-.61,2.36h1.47a1.7,1.7,0,0,0,.18.44l-1,1A3.15,3.15,0,0,1,50.71,19.3ZM53.43,22A3.16,3.16,0,0,1,52,21.39l1-1a1.75,1.75,0,0,0,.44.18Zm0-4.84a1.76,1.76,0,0,0-.45.19l-1-1a3.15,3.15,0,0,1,1.48-.61Zm.88-1.46a3.16,3.16,0,0,1,1.48.61l-1,1a1.72,1.72,0,0,0-.45-.19Zm0,6.3V20.54a1.73,1.73,0,0,0,.44-.18l1,1A3.16,3.16,0,0,1,54.31,22Zm2.1-1.22-1-1a1.7,1.7,0,0,0,.19-.44H57A3.16,3.16,0,0,1,56.41,20.78Zm-.85-2.36a1.75,1.75,0,0,0-.18-.45l1-1A3.17,3.17,0,0,1,57,18.42H55.56Z"/><path class="cls-1" d="M66.05,11.15V7.4a1.22,1.22,0,0,0-1-1.21,50,50,0,0,1-5.11-1C58.27,4.69,52,2,49.77,1.51s-12.05-3.18-21.5.09c-1.6.55-8.79,4-13,5.78C14,7.41,1.68,10,1,11.74A28.48,28.48,0,0,0,0,14.8,7.22,7.22,0,0,0,1,18.88,14.71,14.71,0,0,0,5.76,20c0-.13,0-.25-.07-.38a5.84,5.84,0,0,1-.05-.76,6.09,6.09,0,1,1,12.19,0c0,.17,0,.34,0,.51a5.93,5.93,0,0,1-.2,1.1h0l30.25-.61c0-.08,0-.16,0-.24a5.82,5.82,0,0,1-.05-.76,6.09,6.09,0,0,1,12.19,0s0,0,0,0h.13l5.17-1a4.4,4.4,0,0,0,2-4,3.49,3.49,0,0,0-1.19-2.8ZM36,7.59l-11.3.35C25,6.25,24,5.87,24,5.87,28.45,1.79,37.5,1.65,37.5,1.65Zm12.68-.52-10.29.35.93-5.77a24.38,24.38,0,0,1,8.36,1.1l1.52,2.45Zm5.8,0H51.66L48.79,3.1c2.15.86,3.87,1.7,4.9,2.23A1.6,1.6,0,0,1,54.53,7Z"/></g></g></svg>