<svg xmlns="http://www.w3.org/2000/svg" viewBox="0 0 64.36 22.11"><defs><style>.cls-1{fill:#f15a29;}</style></defs><title>truckAsset 6</title><g id="Layer_2" data-name="Layer 2"><g id="Layer_1-2" data-name="Layer 1"><path class="cls-1" d="M55.84,15.27a3.3,3.3,0,1,0,3.3,3.3A3.3,3.3,0,0,0,55.84,15.27Zm0,4.74a1.45,1.45,0,1,1,1.45-1.45A1.45,1.45,0,0,1,55.84,20Zm-7.7-4.74a3.3,3.3,0,1,0,3.3,3.3A3.3,3.3,0,0,0,48.13,15.27Zm0,4.74a1.45,1.45,0,1,1,1.45-1.45A1.45,1.45,0,0,1,48.13,20Zm-7.81-4.74a3.3,3.3,0,1,0,3.3,3.3A3.3,3.3,0,0,0,40.32,15.27Zm0,4.74a1.45,1.45,0,1,1,1.45-1.45A1.46,1.46,0,0,1,40.32,20ZM6.84,3.61A22.86,22.86,0,0,1,12.37.22V3.61ZM12.76,0V4.36h-.28V17.81H36.33a4.13,4.13,0,0,1,7.94-.45A4.12,4.12,0,0,1,52,17.22a4.12,4.12,0,0,1,7.89.59h3.39V13.75h1.06V0ZM62.37,15.8h-.51V13.75h.51ZM1.81,17.37a3.38,3.38,0,0,0-.08.72,2.88,2.88,0,0,0,.07.6H0V17.37Zm8.93,0h1.38v1.32H10.76a3.77,3.77,0,0,0,0-1.32Zm25.55.72a4.63,4.63,0,0,0,0,.6c0,.13,0,.24,0,.37H12.49v-1Zm23.68,0h3.71v1H60c0-.12,0-.24,0-.36A4.23,4.23,0,0,0,60,18.09ZM.12,10.31V17h2a4.4,4.4,0,0,1,8.54,0h1.48V4.34H2.85Zm11-5V8.44H7.54L4.88,10.67H1.34l2-5.37ZM6.41,15a3.54,3.54,0,1,0,3.54,3.54A3.54,3.54,0,0,0,6.41,15Zm0,5.09A1.55,1.55,0,1,1,8,18.57,1.55,1.55,0,0,1,6.41,20.12Z"/></g></g></svg>